<svg width="32" height="32" viewBox="0 0 32 32" fill="none" xmlns="http://www.w3.org/2000/svg">
  <rect width="32" height="32" fill="#1a1a2e"/>
  <!-- 霍格沃茨帽子 -->
  <path d="M16 4C12 4 8 6 6 10C5 12 5 14 6 16C7 18 9 20 12 22C13 23 15 24 16 24C17 24 19 23 20 22C23 20 25 18 26 16C27 14 27 12 26 10C24 6 20 4 16 4Z" fill="#8B4513"/>
  <!-- 帽檐 -->
  <path d="M6 16C8 18 12 20 16 20C20 20 24 18 26 16C24 17 20 18 16 18C12 18 8 17 6 16Z" fill="#654321"/>
  <!-- 魔法星星 -->
  <circle cx="10" cy="8" r="1" fill="#FFD700"/>
  <circle cx="22" cy="10" r="1" fill="#FFD700"/>
  <circle cx="8" cy="14" r="0.5" fill="#FFD700"/>
  <circle cx="24" cy="14" r="0.5" fill="#FFD700"/>
</svg>
